<svg width="324" height="214" viewBox="0 0 324 214" fill="none" xmlns="http://www.w3.org/2000/svg" xmlns:xlink="http://www.w3.org/1999/xlink">
<path d="M-1,31.454C-1,13.791 13.319,-0.528 30.982,-0.528L291.018,-0.528C308.682,-0.528 323,13.791 323,31.454L323,31.454C323,49.117 308.682,63.436 291.018,63.436L30.982,63.436C13.319,63.436 -1,49.117 -1,31.454L-1,31.454Z" fill="#FFF9F9"/>
<path d="M-1,181.018C-1,163.354 13.319,149.035 30.982,149.035L291.018,149.035C308.682,149.035 323,163.354 323,181.018L323,181.018C323,198.681 308.682,213 291.018,213L30.982,213C13.319,213 -1,198.681 -1,181.018L-1,181.018Z" fill="#FFF9F9"/>
</svg>
