<svg width="43" height="45" viewBox="0 0 43 45" fill="none" xmlns="http://www.w3.org/2000/svg"><g filter="url(#filter0_d_976_407)"><circle cx="21.2127" cy="21.2129" r="15" transform="rotate(45.2959 21.2127 21.2129)" fill="#CE7A3E"/></g><path d="M22.1167 12.65C22.7167 12.5 23.1501 12.65 23.4167 13.1C23.5001 13.25 23.5501 13.4167 23.5667 13.6C23.5667 13.85 23.5084 14.0917 23.3917 14.325C23.0084 14.8583 22.5251 15.1667 21.9417 15.25C21.7584 15.25 21.5667 15.2 21.3667 15.1C21.2001 15.0167 21.0667 14.8667 20.9667 14.65C20.9167 14.5833 20.8834 14.45 20.8667 14.25C20.8667 13.9833 20.9167 13.75 21.0167 13.55C21.2501 13.0833 21.6167 12.7833 22.1167 12.65ZM19.9667 18C20.0834 17.9667 20.2667 17.95 20.5167 17.95C20.9001 17.9667 21.2334 18.05 21.5167 18.2C21.7334 18.3167 21.9001 18.4417 22.0167 18.575C22.1501 18.6917 22.2751 18.8583 22.3917 19.075C22.5417 19.3917 22.6084 19.725 22.5917 20.075C22.5917 20.3583 22.5751 20.5583 22.5417 20.675C22.5251 20.7083 22.1501 21.75 21.4167 23.8C20.7167 25.6667 20.3417 26.7 20.2917 26.9C20.1251 27.45 20.1001 27.8167 20.2167 28C20.3001 28.1 20.4751 28.1167 20.7417 28.05C21.3917 27.9 21.9167 27.0917 22.3167 25.625C22.4001 25.3583 22.4834 25.2167 22.5667 25.2C22.6167 25.1833 22.7917 25.175 23.0917 25.175C23.4584 25.175 23.6584 25.1917 23.6917 25.225C23.7917 25.2917 23.7917 25.4667 23.6917 25.75C23.5084 26.4 23.2334 27.0083 22.8667 27.575C22.2001 28.575 21.4417 29.1333 20.5917 29.25C20.2917 29.3167 19.9834 29.3 19.6667 29.2C19.3334 29.1 19.0584 28.975 18.8417 28.825C18.4751 28.525 18.2334 28.1 18.1167 27.55C18.0501 27.2333 18.0667 26.9 18.1667 26.55C18.2001 26.4167 18.5667 25.3917 19.2667 23.475C19.8667 21.875 20.2501 20.825 20.4167 20.325C20.5834 19.8083 20.6084 19.45 20.4917 19.25C20.4417 19.1167 20.2667 19.0917 19.9667 19.175C19.4667 19.2917 19.0251 19.8167 18.6417 20.75C18.4251 21.5 18.3167 21.8583 18.3167 21.825C18.2667 21.925 18.2334 21.9833 18.2167 22C18.1834 22.0333 17.9834 22.05 17.6167 22.05H17.0667L16.9917 21.975C16.9417 21.925 16.9167 21.8583 16.9167 21.775C16.9501 21.5083 17.0917 21.0917 17.3417 20.525C17.5417 20.0917 17.7501 19.7333 17.9667 19.45C18.1834 19.15 18.4584 18.85 18.7917 18.55C19.1584 18.2667 19.5501 18.0833 19.9667 18Z" fill="black"/><defs><filter id="filter0_d_976_407" x="2.21277" y="6.21289" width="38" height="38" filterUnits="userSpaceOnUse" color-interpolation-filters="sRGB"><feFlood flood-opacity="0" result="BackgroundImageFix"/><feColorMatrix in="SourceAlpha" type="matrix" values="0 0 0 0 0 0 0 0 0 0 0 0 0 0 0 0 0 0 127 0" result="hardAlpha"/><feOffset dy="4"/><feGaussianBlur stdDeviation="2"/><feComposite in2="hardAlpha" operator="out"/><feColorMatrix type="matrix" values="0 0 0 0 0 0 0 0 0 0 0 0 0 0 0 0 0 0 0.25 0"/><feBlend mode="normal" in2="BackgroundImageFix" result="effect1_dropShadow_976_407"/><feBlend mode="normal" in="SourceGraphic" in2="effect1_dropShadow_976_407" result="shape"/></filter></defs></svg>